<svg id="visual" viewBox="0 0 960 540" width="960" height="540" xmlns="http://www.w3.org/2000/svg" xmlns:xlink="http://www.w3.org/1999/xlink" version="1.1"><rect width="960" height="540" fill="#F6F7F9"></rect><g><g transform="translate(501 431)"><path d="M83.3 -25.1C97.2 15.6 90.2 65.1 62.1 85.6C33.9 106.1 -15.4 97.7 -50.3 71.7C-85.2 45.8 -105.7 2.4 -94.9 -34.1C-84.1 -70.6 -42 -100.1 -3.7 -99C34.7 -97.8 69.4 -65.8 83.3 -25.1Z" stroke="#3563E9" fill="none" stroke-width="20"></path></g><g transform="translate(109 60)"><path d="M66.1 -22.4C75.1 6.3 64.6 40.4 41.2 57.7C17.7 75 -18.8 75.5 -44.9 57.5C-71.1 39.5 -87 3 -77.8 -25.9C-68.6 -54.9 -34.3 -76.3 -2.9 -75.4C28.5 -74.5 57.1 -51.1 66.1 -22.4Z" stroke="#3563E9" fill="none" stroke-width="20"></path></g><g transform="translate(134 401)"><path d="M51.2 -14.6C59.1 7.5 53.1 36.2 36 48.2C19 60.3 -9.2 55.8 -29.8 40.9C-50.3 26 -63.3 0.6 -57.1 -19.3C-50.9 -39.2 -25.5 -53.6 -1.9 -53C21.7 -52.4 43.4 -36.8 51.2 -14.6Z" stroke="#3563E9" fill="none" stroke-width="20"></path></g></g></svg>