<svg width="1296" height="174" viewBox="0 0 1296 174" fill="none" xmlns="http://www.w3.org/2000/svg">
<rect width="1296" height="174" rx="40" fill="#FAFAFA"/>
<g clip-path="url(#clip0_1_6315)">
<path d="M81.0001 60.3732C58.5676 60.3732 40.3792 72.2938 40.3792 86.9946C40.3792 101.701 58.5676 113.627 81.0001 113.627C103.433 113.627 121.621 101.706 121.621 86.9946C121.621 72.283 103.433 60.3732 81.0001 60.3732ZM81.0001 102.198C77.6635 102.198 74.9409 95.5402 74.77 87.1622C76.7773 87.3407 78.8647 87.4381 81.0001 87.4381C83.1355 87.4381 85.2229 87.3407 87.2302 87.1622C87.0594 95.5348 84.3367 102.198 81.0001 102.198ZM75.1811 80.5096C76.0887 74.5871 78.3522 70.3846 81.0001 70.3846C83.648 70.3846 85.9116 74.5871 86.8191 80.5096C84.956 80.6773 83.0127 80.7692 81.0001 80.7692C78.9875 80.7692 77.0443 80.6773 75.1811 80.5096ZM81.0001 64.2241C76.6439 64.2241 72.9282 70.8335 71.5562 80.0607C63.2975 78.7572 57.5319 75.7824 57.5319 72.3263C57.5319 67.664 68.0381 63.8834 81.0001 63.8834C93.9621 63.8834 104.468 67.664 104.468 72.3263C104.468 75.7824 98.7027 78.7572 90.444 80.0607C89.072 70.8335 85.3564 64.2241 81.0001 64.2241ZM46.2035 85.9994C46.2035 81.4886 47.9172 77.2536 50.9014 73.619C50.8694 73.8732 50.848 74.1328 50.848 74.3924C50.848 80.0769 59.2616 84.923 71.001 86.7079C70.9904 87.119 70.9904 87.5354 70.9904 87.9519C70.9904 98.5475 73.9212 107.52 77.9732 110.565C60.1691 109.478 46.2035 98.8936 46.2035 85.9994ZM84.0271 110.565C88.079 107.52 91.0099 98.5475 91.0099 87.9519C91.0099 87.53 91.0045 87.119 90.9992 86.7079C102.733 84.923 111.152 80.0823 111.152 74.3924C111.152 74.1328 111.131 73.8732 111.099 73.619C114.083 77.2644 115.797 81.4886 115.797 85.9994C115.797 98.8936 101.831 109.478 84.0271 110.565Z" fill="black"/>
</g>
<path d="M352.467 96.0651C352.493 96.2287 352.708 96.3854 352.915 96.4595C352.992 96.4851 353.029 96.5362 352.949 96.71C352.357 97.9812 351.812 98.7141 351.069 99.8187C350.386 100.839 349.616 101.635 348.684 102.401C347.278 103.566 345.326 104.833 343.713 103.981C342.996 103.609 342.686 102.604 342.699 101.792C342.733 99.5057 343.75 97.1591 345.626 94.8527C347.913 92.0345 350.441 90.5727 352.101 91.3717C353.818 92.1913 353.27 94.1807 352.501 95.7423C352.441 95.8633 352.441 95.9655 352.467 96.0643M370.891 78.2539C371.014 78.0358 370.884 77.8765 370.609 77.8765C369.175 77.8765 367.293 77.8797 365.799 77.8797C365.443 77.8797 365.26 77.9222 365.092 78.2545C364.54 79.312 357.819 89.3934 356.568 91.3512C356.357 91.6494 356.1 91.6075 356.07 91.2659C355.943 90.1031 354.94 88.7665 353.359 88.1269C352.155 87.6379 350.977 87.5492 349.752 87.712C347.542 88.0093 345.572 89.1764 343.841 90.4927C341.231 92.4782 338.98 95.0517 336.073 96.9532C334.487 97.9884 332.314 98.8911 330.86 97.5436C329.544 96.3226 329.693 93.6109 331.706 91.5135C331.918 91.2937 332.173 91.4794 332.133 91.6745C331.943 92.623 332.175 93.5663 332.895 94.2277C333.773 95.0157 335.031 95.1047 336.106 94.5787C337.376 93.9491 338.122 92.7334 338.339 91.3536C338.676 89.2133 337.03 87.3256 334.97 87.1742C333.296 87.0566 331.692 87.6393 330.128 88.9308C329.344 89.5817 328.899 90.0626 328.221 91.0276C328.056 91.2653 327.802 91.289 327.81 90.938C327.886 88.1978 326.755 86.6561 324.492 86.6058C322.735 86.5632 320.858 87.5178 319.395 88.6853C317.791 89.9744 316.388 91.6828 314.885 93.288C314.698 93.4857 314.535 93.4763 314.482 93.0929C314.44 91.2773 313.981 89.5187 313.141 88.2699C312.844 87.8354 312.219 87.6207 311.694 87.9137C311.451 88.0466 310.607 88.4352 309.993 88.9303C309.688 89.1817 309.569 89.5455 309.704 90.0118C310.514 92.7243 310.336 95.8083 309.237 98.413C308.227 100.799 306.265 102.95 303.958 103.679C302.439 104.161 300.86 103.925 299.882 102.577C298.54 100.716 299.082 97.4804 301.083 94.7937C302.849 92.4279 305.403 90.9251 307.951 89.9574C308.25 89.8416 308.312 89.649 308.227 89.3943C308.089 88.9751 307.868 88.4042 307.779 88.1437C307.545 87.5209 306.891 87.4203 306.092 87.5072C304.24 87.7228 302.571 88.3575 300.921 89.2415C296.602 91.5565 294.436 96.0369 293.487 98.4338C293.03 99.5853 292.639 100.304 292.134 100.94C291.453 101.797 290.599 102.577 289.036 103.951C288.894 104.077 288.789 104.339 288.908 104.584C289.067 104.914 289.88 106.063 290.109 106.166C290.364 106.291 290.659 106.115 290.778 106.031C291.871 105.289 293.18 104.113 293.82 103.315C294.045 103.042 294.275 103.157 294.395 103.572C294.992 105.706 296.557 107.448 298.721 108.177C302.681 109.513 306.789 107.578 309.89 104.21C311.86 102.069 312.571 100.692 313.327 99.7562C314.607 98.1688 317.132 94.6177 320.139 92.3377C321.242 91.4969 322.548 90.8555 323.204 91.2815C323.731 91.6231 323.901 92.4171 323.056 93.9555C319.989 99.5597 315.478 106.144 314.65 107.741C314.499 108.018 314.633 108.236 314.921 108.236C316.526 108.228 318.116 108.232 319.573 108.232C319.815 108.223 319.924 108.109 320.045 107.938C322.399 104.251 324.613 100.742 326.987 97.1144C327.12 96.9006 327.242 97.0632 327.247 97.157C327.298 97.9987 327.503 99.1499 328.002 99.9059C328.9 101.303 330.171 101.904 331.581 101.913C332.704 101.93 333.271 101.756 334.481 101.303C335.466 100.938 336.256 100.458 336.863 100.024C337.217 99.7769 337.279 100.19 337.271 100.253C336.726 103.18 337.398 106.648 340.305 108.086C343.783 109.802 347.604 107.39 349.803 105.212C350.018 105.002 350.249 105.024 350.271 105.477C350.322 106.308 350.693 107.295 351.38 107.985C353.223 109.836 356.941 109.103 360.672 106.212C363.067 104.362 365.574 101.747 367.838 98.9784C367.923 98.871 367.984 98.6989 367.821 98.5243C367.476 98.1631 366.978 97.7498 366.636 97.4316C366.48 97.2987 366.251 97.337 366.12 97.4362C363.799 99.6453 361.71 102.165 358.69 104.248C357.672 104.959 356.049 105.533 355.32 104.545C355.036 104.162 355.068 103.632 355.346 102.936C356.226 100.739 370.164 79.5003 370.887 78.2476" fill="black"/>
<path d="M305.315 80.8167C305.375 81.132 305.497 81.1934 305.64 81.167C306.35 81.0247 307.127 80.4402 307.587 79.7627C308.006 79.1484 308.203 78.262 307.786 77.9068C307.415 77.5874 306.811 77.6776 306.363 78.0738C305.471 78.8627 305.2 79.982 305.315 80.8174M269.791 108.156C264.594 108.19 260.015 104.978 259.49 99.4136C259.198 96.3301 260.069 93.582 261.812 91.318C263.359 89.3006 265.977 87.6246 268.193 87.2152C268.914 87.0831 269.883 87.1641 270.283 87.6446C270.911 88.3764 270.731 89.1803 270.102 89.5011C268.412 90.3649 266.378 91.8438 265.371 93.8631C264.555 95.5113 264.39 97.4976 265.637 99.3899C267.724 102.544 273.542 102.63 278.951 97.6009C280.29 96.3699 281.489 95.1873 282.707 93.7864C285.09 91.0601 285.882 90.0667 289.049 85.6703C289.083 85.6192 289.1 85.5526 289.083 85.5203C289.058 85.4606 289.015 85.4521 288.921 85.4436C286.807 85.5032 284.963 86.1329 283.172 87.4729C282.656 87.8494 281.913 87.7966 281.588 87.3007C281.227 86.7401 281.486 86.0104 282.081 85.5983C284.963 83.5922 288.111 83.2284 291.327 82.6854C291.324 82.6854 291.55 82.6938 291.733 82.4519C293.053 80.7566 294.05 79.2275 295.457 77.5131C296.874 75.7736 298.705 74.1763 300.104 72.9765C302.057 71.2959 303.31 70.7303 304.583 70.0372C304.918 69.8617 304.54 69.6521 304.438 69.6521C297.332 68.3154 289.945 66.5857 282.888 69.2005C278 71.026 275.858 74.9052 276.889 77.4973C277.622 79.3361 280.038 79.635 282.3 78.5271C284.179 77.6058 285.917 76.1209 287.15 74.2094C287.839 73.1478 289.292 73.9137 288.507 75.757C286.442 80.6151 282.497 84.4686 277.691 84.6313C273.601 84.7642 270.962 81.7528 270.971 78.0376C270.988 70.7099 279.138 65.8829 287.704 65.1613C298.02 64.3081 307.791 67.0583 318.033 68.3017C325.881 69.2528 333.405 69.2726 341.293 67.459C342.225 67.2563 342.88 67.8518 342.819 68.7944C342.742 70.1569 341.687 71.4692 339.09 72.8873C336.135 74.5091 333.044 75.0012 329.816 75.0276C322.01 75.0958 314.738 72.0473 307.214 70.4109C307.222 70.7406 307.309 71.1333 307.034 71.3415C302.866 74.4183 299.098 77.5429 296.575 81.9315C296.49 82.0329 296.532 82.1292 296.683 82.119C298.874 82.0022 300.844 81.946 302.889 81.7824C303.247 81.7483 303.26 81.6631 303.229 81.4024C303.047 79.8897 303.489 78.1648 304.819 76.9783C306.179 75.7572 307.883 75.6184 309.013 76.4978C310.297 77.4992 310.183 79.3001 309.481 80.6507C308.766 82.0211 307.585 82.7541 306.451 83.1099C306.451 83.1099 306.213 83.1611 306.249 83.3775C306.291 83.7234 307.838 84.5798 307.97 84.808C308.097 85.0252 308.029 85.3618 307.797 85.62C307.633 85.8074 307.377 85.9829 307.049 85.9769C306.785 85.9717 306.624 85.8798 306.285 85.6967C305.592 85.321 304.726 84.7032 304.149 83.975C303.952 83.7287 303.851 83.7237 303.36 83.751C301.147 83.8788 297.696 84.2127 295.358 84.505C294.791 84.5731 294.708 84.6813 294.591 84.8781C290.863 91.0305 286.883 97.6652 282.513 102.107C277.825 106.87 273.929 108.124 269.793 108.157" fill="black"/>
<path fill-rule="evenodd" clip-rule="evenodd" d="M547.025 64.2586C555.343 68.5536 561.025 77.1167 561.025 86.9872C561.025 96.8577 555.343 105.448 547.025 109.716V106.782C550.206 104.913 552.897 102.299 554.855 99.2047L547.025 96.0842V91.3356L555.615 97.9249C557.409 94.6701 558.415 90.9616 558.415 86.9865C558.415 78.6098 553.847 71.2476 547.025 67.1922V64.2586ZM534.927 61.3507C539.277 61.3507 543.382 62.3916 547.025 64.2586V67.1935C543.681 65.2185 539.766 64.0453 535.634 63.9117L538.624 84.9069L547.025 91.3362V96.0849L534.872 91.2559L522.802 96.1112V91.3889L531.257 84.9062L534.22 63.911C530.033 64.0446 526.146 65.2185 522.802 67.1922V64.2586C526.418 62.3916 530.55 61.3507 534.927 61.3507ZM547.025 109.716C543.382 111.584 539.277 112.65 534.927 112.65C530.551 112.65 526.419 111.584 522.803 109.743V106.782C526.337 108.888 530.496 110.089 534.927 110.089C539.332 110.089 543.464 108.888 547.025 106.782V109.716ZM522.803 109.743C514.456 105.448 508.775 96.8577 508.775 86.9872C508.775 77.1167 514.456 68.5536 522.803 64.2586V67.1935C515.952 71.2482 511.385 78.5841 511.385 86.9872C511.385 90.9616 512.418 94.7241 514.212 97.9782L522.803 91.3889V96.1112L515 99.258C516.958 102.327 519.622 104.914 522.803 106.782V109.743Z" fill="black"/>
<g clip-path="url(#clip1_1_6315)">
<path d="M788.504 88.4891C788.416 93.3843 789.472 95.9772 793.503 95.9772C797.527 95.9772 798.104 91.5603 798.104 88.1992C798.104 84.8359 797.341 81.5709 793.113 81.5709C790.519 81.5709 788.604 83.5886 788.504 88.4891ZM780.35 108.945V75.8092H788.604C788.604 75.8092 788.604 76.289 788.604 77.1533C788.604 78.9462 789.326 78.2069 789.908 77.5082C790.006 77.3914 791.845 75.1371 795.989 75.1371C800.119 75.1371 806.545 78.0176 806.545 88.1992C806.545 96.0748 802.711 101.837 796.09 101.837C792.442 101.837 790.333 100.399 789.851 99.8181C789.368 99.2459 788.697 99.1461 788.697 99.8181C788.697 100.492 788.697 108.945 788.697 108.945H780.35Z" fill="black"/>
<path d="M716.552 65.0546H725.475C725.475 65.0546 725.475 84.4537 725.475 88.4891C725.475 92.52 723.746 100.974 711.372 100.974C698.997 100.974 697.655 93.0945 697.655 88.6798V84.3583H706.289C706.289 84.3583 706.289 85.9908 706.289 88.5822C706.289 91.1751 708.017 93.5751 711.276 93.5751C714.538 93.5751 716.552 91.7511 716.552 88.6798C716.552 85.6063 716.552 65.0546 716.552 65.0546Z" fill="black"/>
<path d="M744.133 84.9342C744.133 82.5306 742.793 80.226 739.723 80.226C736.749 80.226 735.693 82.3369 735.693 84.9342H744.133ZM738.862 74.8487C745.869 74.8487 752.006 77.537 752.006 89.9271H735.411C735.411 93.8649 737.04 95.4981 739.918 95.4981C742.797 95.4981 743.756 93.1913 743.756 93.1913H751.913C751.913 96.7461 747.019 101.548 739.63 101.453C731.191 101.453 727.065 95.2097 727.065 88.7744C727.065 82.3369 730.708 74.8487 738.862 74.8487Z" fill="black"/>
<path d="M770.663 84.9342C770.663 82.5306 769.321 80.226 766.251 80.226C763.278 80.226 762.22 82.3369 762.22 84.9342H770.663ZM765.392 74.8487C772.398 74.8487 778.534 77.537 778.534 89.9271H761.939C761.939 93.8649 763.57 95.4981 766.45 95.4981C769.326 95.4981 770.286 93.1913 770.286 93.1913H778.443C778.443 96.7461 773.549 101.548 766.162 101.453C757.718 101.453 753.592 95.2097 753.592 88.7744C753.592 82.3369 757.24 74.8487 765.392 74.8487Z" fill="black"/>
<path d="M801.082 104.973C801.082 103.66 802.149 102.594 803.464 102.594C804.775 102.594 805.84 103.66 805.84 104.973C805.84 106.283 804.775 107.356 803.464 107.356C802.149 107.356 801.082 106.283 801.082 104.973ZM800.807 104.973C800.807 106.441 801.994 107.633 803.464 107.633C804.924 107.633 806.118 106.441 806.118 104.973C806.118 103.504 804.924 102.313 803.464 102.313C801.994 102.313 800.807 103.504 800.807 104.973Z" fill="black"/>
<path d="M804.531 106.333L803.979 105.029C804.154 104.968 804.212 104.925 804.305 104.826C804.426 104.695 804.503 104.49 804.503 104.304C804.503 103.833 804.141 103.513 803.618 103.513H802.51V106.333H802.839V105.112H803.639L804.165 106.333H804.531ZM802.83 104.826V103.82H803.611C803.938 103.82 804.145 104.006 804.145 104.295C804.145 104.622 803.925 104.826 803.565 104.826H802.83Z" fill="black"/>
</g>
<g clip-path="url(#clip2_1_6315)">
<path d="M969.3 60C954.113 60 941.8 72.0893 941.8 87C941.8 101.911 954.113 114 969.3 114C984.487 114 996.8 101.911 996.8 87C996.8 72.0893 984.487 60 969.3 60ZM969.3 61.755C983.499 61.755 995.01 73.0568 995.01 87C995.01 100.941 983.502 112.243 969.3 112.243C955.099 112.243 943.59 100.941 943.59 87C943.59 73.059 955.101 61.755 969.3 61.755ZM967.746 63.1725C966.99 63.204 966.234 63.267 965.473 63.348L965.228 69.972C965.767 69.8824 966.31 69.8118 966.855 69.7605L967.015 65.2875L966.985 64.9792L967.084 65.2717L968.606 68.622H969.994L971.516 65.274L971.608 64.9792L971.585 65.2875L971.745 69.7605C972.277 69.81 972.829 69.882 973.372 69.972L973.123 63.348C972.367 63.2644 971.609 63.2059 970.849 63.1725L969.353 66.8288L969.3 67.0988L969.247 66.8288L967.746 63.1725ZM983.091 67.2765L979.555 72.7395C980.002 73.077 980.591 73.5743 980.969 73.914L984.299 72.2175L984.51 72.0623L984.352 72.2738L982.628 75.543C983.002 75.9368 983.54 76.5735 983.843 76.9605L989.412 73.4865C989.07 73.0527 988.719 72.6266 988.358 72.2085L984.831 74.49L984.59 74.697L984.769 74.4382L986.327 71.3872L985.227 70.3073L982.12 71.8373L981.856 72.0128L982.065 71.7743L984.398 68.3115C983.985 67.9695 983.593 67.6567 983.091 67.2765ZM954.404 68.5163C953.579 68.5995 952.942 69.153 951.212 71.0475C950.612 71.7151 950.033 72.4009 949.477 73.104L954.23 77.5297C955.804 75.8197 956.444 75.1853 957.686 73.9005C958.564 72.9893 959.061 71.943 958.181 70.9373C957.704 70.3927 956.902 70.2735 956.233 70.5435L956.169 70.566L956.192 70.5075C956.274 70.209 956.266 69.8931 956.167 69.5994C956.068 69.3057 955.883 69.0472 955.635 68.856C955.463 68.7227 955.265 68.6242 955.054 68.5663C954.843 68.5083 954.622 68.4899 954.404 68.5163ZM954.418 69.9C954.73 69.8168 955.053 70.035 955.124 70.35C955.197 70.665 954.995 70.962 954.771 71.2095C954.267 71.772 952.408 73.68 952.408 73.68L951.487 72.8182C952.443 71.6707 953.46 70.6267 953.921 70.2128C954.059 70.0713 954.229 69.9641 954.418 69.9ZM969.3 70.9867C965.263 70.985 961.369 72.4539 958.372 75.1091C955.374 77.7643 953.487 81.4168 953.075 85.3597V85.3643C952.816 87.8658 953.16 90.3921 954.08 92.7388C955 95.0855 956.469 97.1868 958.369 98.8728C960.269 100.559 962.546 101.782 965.017 102.444C967.487 103.106 970.082 103.188 972.591 102.682C976.268 101.94 979.572 99.9744 981.944 97.1171C984.315 94.2597 985.609 90.686 985.608 87C985.603 82.7551 983.884 78.6853 980.826 75.6839C977.769 72.6825 973.624 70.9948 969.3 70.9913V70.9867ZM956.611 71.5312C956.719 71.5312 956.831 71.5605 956.932 71.628C957.134 71.7608 957.225 71.988 957.175 72.213C957.115 72.4808 956.888 72.7327 956.705 72.9285L954.31 75.4485L953.348 74.5485C953.348 74.5485 955.151 72.6765 955.743 72.0758C955.976 71.8373 956.128 71.6933 956.288 71.6145C956.387 71.5638 956.499 71.5354 956.611 71.5312ZM969.3 73.0905C971.161 73.0884 973.004 73.4468 974.724 74.1451C976.444 74.8434 978.006 75.8678 979.322 77.1599C980.638 78.4519 981.682 79.9861 982.393 81.6746C983.104 83.3631 983.469 85.1728 983.467 87H969.3V100.91C967.439 100.912 965.596 100.553 963.876 99.8549C962.156 99.1566 960.594 98.1322 959.278 96.8401C957.962 95.5481 956.918 94.0139 956.207 92.3254C955.496 90.6369 955.131 88.8272 955.133 87H969.3V73.0905Z" fill="black"/>
</g>
<path d="M1153.51 68.4707C1148.53 68.6327 1143.82 70.6973 1140.39 74.2192C1136.96 77.7412 1135.08 82.4385 1135.17 87.2987C1135.25 92.1588 1137.29 96.7925 1140.84 100.201C1144.39 103.609 1149.16 105.519 1154.14 105.519C1159.12 105.519 1163.9 103.609 1167.45 100.201C1171 96.7925 1173.04 92.1588 1173.12 87.2987C1173.2 82.4385 1171.33 77.7412 1167.9 74.2192C1164.46 70.6973 1159.75 68.6327 1154.78 68.4707H1153.51ZM1180.08 68.4707C1175.11 68.6327 1170.39 70.6973 1166.96 74.2192C1163.53 77.7412 1161.66 82.4385 1161.74 87.2987C1161.82 92.1588 1163.86 96.7925 1167.41 100.201C1170.96 103.609 1175.74 105.519 1180.72 105.519C1185.69 105.519 1190.47 103.609 1194.02 100.201C1197.57 96.7925 1199.61 92.1588 1199.69 87.2987C1199.78 82.4385 1197.9 77.7412 1194.47 74.2192C1191.04 70.6973 1186.32 68.6327 1181.35 68.4707H1180.08ZM1206.65 68.4707C1201.68 68.6327 1196.97 70.6973 1193.53 74.2192C1190.1 77.7412 1188.23 82.4385 1188.31 87.2987C1188.39 92.1588 1190.43 96.7925 1193.98 100.201C1197.53 103.609 1202.31 105.519 1207.29 105.519C1212.27 105.519 1217.04 103.609 1220.59 100.201C1224.14 96.7925 1226.18 92.1588 1226.26 87.2987C1226.35 82.4385 1224.47 77.7412 1221.04 74.2192C1217.61 70.6973 1212.9 68.6327 1207.92 68.4707H1206.65ZM1233.23 68.4707C1228.25 68.6327 1223.54 70.6973 1220.11 74.2192C1216.67 77.7412 1214.8 82.4385 1214.88 87.2987C1214.96 92.1588 1217 96.7925 1220.55 100.201C1224.1 103.609 1228.88 105.519 1233.86 105.519C1238.84 105.519 1243.62 103.609 1247.17 100.201C1250.72 96.7925 1252.75 92.1588 1252.83 87.2987C1252.92 82.4385 1251.04 77.7412 1247.61 74.2192C1244.18 70.6973 1239.47 68.6327 1234.49 68.4707H1233.23Z" stroke="black" stroke-width="2.88235"/>
<defs>
<clipPath id="clip0_1_6315">
<rect width="82" height="54" fill="white" transform="translate(40 60)"/>
</clipPath>
<clipPath id="clip1_1_6315">
<rect width="109" height="44" fill="white" transform="translate(697.6 65)"/>
</clipPath>
<clipPath id="clip2_1_6315">
<rect width="55" height="54" fill="white" transform="translate(941.8 60)"/>
</clipPath>
</defs>
</svg>
