<svg width="102" height="34" viewBox="0 0 102 34" fill="none" xmlns="http://www.w3.org/2000/svg">
<g clip-path="url(#clip0_36_244)">
<path d="M82.7126 26.2118L83.2981 25.6273C83.5226 25.4032 83.5226 25.0403 83.2981 24.8175C83.0736 24.5933 82.71 24.5933 82.4868 24.8175L81.9013 25.402L81.3005 24.8009C81.076 24.5768 80.7137 24.5768 80.4892 24.8009C80.2647 25.025 80.2647 25.3879 80.4892 25.6108L81.0913 26.2118L80.5045 26.7976C80.28 27.0217 80.28 27.3846 80.5045 27.6075C80.6167 27.7196 80.7634 27.7756 80.9101 27.7756C81.0568 27.7756 81.2035 27.7196 81.3158 27.6075L81.9026 27.0217L82.4996 27.619C82.6118 27.731 82.7585 27.787 82.9052 27.787C83.0519 27.787 83.1986 27.731 83.3109 27.619C83.5354 27.3948 83.5354 27.0319 83.3109 26.8091L82.7139 26.2118H82.7126Z" fill="#263544"/>
<path d="M81.9013 22.0936C79.6269 22.0936 77.7772 23.9401 77.7772 26.2106C77.7772 28.481 79.6269 30.3275 81.9013 30.3275C84.1757 30.3275 86.0254 28.481 86.0254 26.2106C86.0254 23.9401 84.1757 22.0936 81.9013 22.0936ZM81.9013 29.1827C80.2596 29.1827 78.9253 27.8494 78.9253 26.2118C78.9253 24.5742 80.2609 23.241 81.9013 23.241C83.5418 23.241 84.8773 24.5742 84.8773 26.2118C84.8773 27.8494 83.5418 29.1827 81.9013 29.1827Z" fill="#263544"/>
<path d="M3.07044 28.6733H12.8226L12.8366 28.1143C12.843 27.866 12.8506 27.6151 12.8583 27.3592C12.8749 26.8167 12.8927 26.2564 12.8927 25.6808C12.8927 20.8355 16.8408 16.8943 21.6945 16.8943C26.5483 16.8943 30.4963 20.8355 30.4963 25.6808C30.4963 26.2564 30.5142 26.8167 30.5308 27.3592C30.5384 27.6151 30.5473 27.866 30.5524 28.1143L30.5665 28.6733H73.0319L73.046 28.1143C73.0523 27.866 73.06 27.6151 73.0676 27.3592C73.0842 26.8167 73.1021 26.2564 73.1021 25.6808C73.1021 20.8355 77.0501 16.8943 81.9039 16.8943C86.7576 16.8943 90.7057 20.8355 90.7057 25.6808C90.7057 26.2564 90.7235 26.8167 90.7401 27.3592C90.7478 27.6151 90.7567 27.866 90.7618 28.1143L90.7758 28.6733H99.2523C100.023 28.6733 100.797 28.3219 101.272 27.7578C101.673 27.2802 101.837 26.6881 101.731 26.0909L101.727 26.0679L98.9156 15.3484L98.9092 15.3267C98.5176 14.0342 97.7509 13.2817 96.5608 13.0206L74.046 8.4618L62.267 2.75694C59.0639 1.0442 55.8314 0.0216542 53.617 0.0216542H45.4645C45.4007 0.00509992 45.3344 -0.00381393 45.2655 0.00255311C45.231 0.00509992 45.1979 0.0127404 45.1647 0.0216542H33.3984C31.6176 0.0216542 27.4233 1.45933 26.4577 1.84517L12.5891 7.34375L5.27855 8.43379C3.97103 8.63754 3.07682 9.53274 2.88548 10.8252L0.589359 26.1049L0.586808 26.1227C0.514097 26.7403 0.706716 27.3426 1.1315 27.8189C1.60731 28.3537 2.33313 28.6733 3.07044 28.6733ZM3.60365 13.7745H6.40747L5.71481 17.7946C5.66123 18.1066 5.87043 18.4033 6.18296 18.4568C6.21613 18.4619 6.24802 18.4657 6.28118 18.4657C6.55544 18.4657 6.79781 18.2683 6.84628 17.9894L7.65375 13.2995C7.68309 13.1327 7.63589 12.962 7.52747 12.8334C7.41776 12.7048 7.25831 12.6297 7.08865 12.6297H3.77586L4.02206 10.9933C4.03609 10.8978 4.0565 10.8061 4.08201 10.7196H14.6161C14.9337 10.7196 15.1901 10.4636 15.1901 10.1465C15.1901 9.82944 14.9337 9.57349 14.6161 9.57349H5.41886C5.43034 9.57094 5.44055 9.5684 5.45203 9.56712L12.8238 8.46817L12.8889 8.45798L26.8825 2.90974C28.1874 2.38892 31.9773 1.16772 33.3984 1.16772H44.7897C45.0652 4.34615 46.4505 20.3771 46.5271 21.6607C46.5602 22.221 46.4467 22.6438 46.1877 22.9175C45.9326 23.1875 45.5244 23.325 44.9746 23.325H42.1683C41.8506 23.325 41.5942 23.581 41.5942 23.8981C41.5942 24.2151 41.8506 24.4711 42.1683 24.4711H44.9746C45.8408 24.4711 46.5487 24.2062 47.0233 23.7032C47.5004 23.1977 47.7249 22.468 47.6738 21.5932C47.596 20.2892 46.2413 4.61611 45.9428 1.16772H53.617C55.6529 1.16772 58.6863 2.14188 61.7325 3.77311L73.6736 9.55694L90.5972 12.9837L79.8297 12.3954C79.5121 12.3763 79.2429 12.6208 79.2251 12.9366C79.2072 13.2524 79.4509 13.5223 79.7672 13.5402L96.8605 14.4736C96.8708 14.4736 96.8822 14.4736 96.8924 14.4736C96.946 14.4736 96.997 14.4634 97.0455 14.4506C97.3925 14.7015 97.6336 15.0873 97.8058 15.6489L98.0826 16.7033H94.9777C94.7928 16.7033 94.6193 16.7924 94.5109 16.9427C94.4037 17.093 94.3744 17.2852 94.4343 17.461L95.6245 20.9629C95.7061 21.201 95.9293 21.3512 96.1679 21.3512C96.2291 21.3512 96.2916 21.3411 96.3529 21.3207C96.6526 21.2188 96.8133 20.8941 96.7126 20.5936L95.7788 17.8494H98.3824L99.8519 23.4524H96.8899C96.5723 23.4524 96.3159 23.7083 96.3159 24.0254C96.3159 24.3425 96.5723 24.5984 96.8899 24.5984H100.152L100.601 26.3099C100.64 26.5671 100.569 26.8065 100.389 27.0205C100.13 27.3286 99.6835 27.5273 99.2498 27.5273H91.892C91.8895 27.4598 91.8882 27.391 91.8856 27.3223C91.869 26.7887 91.8512 26.2386 91.8512 25.6808C91.8512 20.2039 87.3878 15.7482 81.9013 15.7482C76.4149 15.7482 71.9515 20.2039 71.9515 25.6808C71.9515 26.2386 71.9336 26.79 71.917 27.3223C71.9145 27.391 71.9132 27.4585 71.9107 27.5273H31.6852C31.6826 27.4598 31.6814 27.391 31.6788 27.3223C31.6622 26.7887 31.6444 26.2386 31.6444 25.6808C31.6444 20.2039 27.181 15.7482 21.6945 15.7482C16.2081 15.7482 11.7447 20.2039 11.7447 25.6808C11.7447 26.2386 11.7268 26.79 11.7102 27.3223C11.7077 27.391 11.7064 27.4585 11.7039 27.5273H3.07044C2.65587 27.5273 2.25149 27.3515 1.98872 27.0574C1.84585 26.8969 1.68512 26.6308 1.72594 26.2653L1.97596 24.5984H7.3425C7.66013 24.5984 7.91653 24.3425 7.91653 24.0254C7.91653 23.7083 7.66013 23.4524 7.3425 23.4524H2.14944L3.60365 13.7745Z" fill="#263544"/>
<path d="M69.4053 13.6051C69.4104 13.6713 69.9155 20.2383 69.9997 21.6607C70.0329 22.221 69.9194 22.6437 69.6604 22.9175C69.4053 23.1875 68.9971 23.325 68.4473 23.325H65.6409C65.3233 23.325 65.0669 23.581 65.0669 23.898C65.0669 24.2151 65.3233 24.4711 65.6409 24.4711H68.4473C69.3134 24.4711 70.0214 24.2062 70.4959 23.7032C70.973 23.1977 71.1975 22.468 71.1465 21.5932C71.061 20.1619 70.5559 13.5847 70.5508 13.5185C70.5266 13.2027 70.2497 12.9646 69.9347 12.9913C69.6183 13.0155 69.3823 13.2906 69.4066 13.6064L69.4053 13.6051Z" fill="#263544"/>
<path d="M32.8562 32.3662H26.5317C28.3724 30.94 29.5613 28.7128 29.5613 26.2119C29.5613 21.9167 26.061 18.4224 21.7583 18.4224C17.4556 18.4224 13.9553 21.9167 13.9553 26.2119C13.9553 28.7128 15.1429 30.94 16.9849 32.3662H0.57403C0.2564 32.3662 0 32.6222 0 32.9393C0 33.2564 0.2564 33.5123 0.57403 33.5123H19.0412C19.8882 33.8268 20.8028 34 21.7583 34C22.7137 34 23.6283 33.8268 24.4754 33.5123H32.8562C33.1738 33.5123 33.4302 33.2564 33.4302 32.9393C33.4302 32.6222 33.1738 32.3662 32.8562 32.3662ZM21.7583 32.854C18.0896 32.854 15.1034 29.8742 15.1034 26.2106C15.1034 22.547 18.0883 19.5672 21.7583 19.5672C25.4282 19.5672 28.4132 22.547 28.4132 26.2106C28.4132 29.8742 25.4282 32.854 21.7583 32.854Z" fill="#263544"/>
<path d="M22.5696 26.2118L23.1551 25.6273C23.3796 25.4032 23.3796 25.0403 23.1551 24.8175C22.9306 24.5933 22.567 24.5933 22.3438 24.8175L21.7583 25.402L21.1575 24.8009C20.933 24.5768 20.5694 24.5768 20.3462 24.8009C20.1217 25.025 20.1217 25.3879 20.3462 25.6108L20.9483 26.2118L20.3615 26.7976C20.137 27.0217 20.137 27.3846 20.3615 27.6075C20.4737 27.7196 20.6204 27.7756 20.7671 27.7756C20.9138 27.7756 21.0605 27.7196 21.1728 27.6075L21.7596 27.0217L22.3566 27.619C22.4688 27.731 22.6155 27.787 22.7622 27.787C22.9089 27.787 23.0556 27.731 23.1679 27.619C23.3924 27.3948 23.3924 27.0319 23.1679 26.8091L22.5709 26.2118H22.5696Z" fill="#263544"/>
<path d="M21.7583 22.0936C19.4839 22.0936 17.6342 23.9401 17.6342 26.2106C17.6342 28.481 19.4839 30.3275 21.7583 30.3275C24.0327 30.3275 25.8824 28.481 25.8824 26.2106C25.8824 23.9401 24.0327 22.0936 21.7583 22.0936ZM21.7583 29.1827C20.1166 29.1827 18.7823 27.8494 18.7823 26.2118C18.7823 24.5742 20.1179 23.241 21.7583 23.241C23.3988 23.241 24.7343 24.5742 24.7343 26.2118C24.7343 27.8494 23.3988 29.1827 21.7583 29.1827Z" fill="#263544"/>
<path d="M101.426 32.3662H86.6734C88.5141 30.94 89.703 28.7128 89.703 26.2119C89.703 21.9167 86.2027 18.4224 81.9 18.4224C77.5974 18.4224 74.097 21.9167 74.097 26.2119C74.097 28.7128 75.2859 30.94 77.1266 32.3662H70.2919C69.9742 32.3662 69.7178 32.6222 69.7178 32.9393C69.7178 33.2564 69.9742 33.5123 70.2919 33.5123H79.183C80.03 33.8268 80.9446 34 81.9 34C82.8555 34 83.7701 33.8268 84.6171 33.5123H101.426C101.744 33.5123 102 33.2564 102 32.9393C102 32.6222 101.744 32.3662 101.426 32.3662ZM81.9013 32.854C78.2326 32.854 75.2464 29.8742 75.2464 26.2106C75.2464 22.547 78.2313 19.5672 81.9013 19.5672C85.5713 19.5672 88.5562 22.547 88.5562 26.2106C88.5562 29.8742 85.5713 32.854 81.9013 32.854Z" fill="#263544"/>
<path d="M21.8859 14.0291H27.4986C27.8162 14.0291 28.0726 13.7732 28.0726 13.4561C28.0726 13.139 27.8162 12.8831 27.4986 12.8831H21.8859C21.5682 12.8831 21.3118 13.139 21.3118 13.4561C21.3118 13.7732 21.5682 14.0291 21.8859 14.0291Z" fill="#263544"/>
<path d="M56.2001 12.8831H50.5873C50.2697 12.8831 50.0133 13.139 50.0133 13.4561C50.0133 13.7732 50.2697 14.0291 50.5873 14.0291H56.2001C56.5177 14.0291 56.7741 13.7732 56.7741 13.4561C56.7741 13.139 56.5177 12.8831 56.2001 12.8831Z" fill="#263544"/>
<path d="M23.2253 10.5909H41.3391C42.0777 10.5909 42.8124 10.2522 43.3023 9.68427C43.7181 9.20292 43.9031 8.62225 43.8227 8.04539L43.5701 4.77401C43.5574 3.41528 42.4463 2.31378 41.0827 2.31378H36.2353C33.707 2.31378 31.0244 3.54262 29.9172 4.32195C29.7692 4.41873 28.0178 5.55333 26.3046 6.73124C25.2535 7.45326 24.4205 8.05176 23.8286 8.50764C22.7699 9.32389 22.4407 9.67408 22.5798 10.1389C22.641 10.3477 22.8464 10.5909 23.224 10.5909H23.2253ZM30.5537 5.27828L30.5741 5.26427C31.6329 4.5155 34.0897 3.45985 36.2379 3.45985H41.0852C41.8238 3.45985 42.4246 4.05962 42.4246 4.79693L42.681 8.15109L42.6861 8.19183C42.7359 8.52801 42.5496 8.8018 42.4348 8.9355C42.1644 9.24876 41.7447 9.44487 41.3404 9.44487H24.4907C25.765 8.46434 28.2435 6.77198 30.5537 5.27828Z" fill="#263544"/>
<path d="M50.9534 11.1003H69.3224C69.6783 11.1003 69.8939 10.8673 69.95 10.6355C70.0737 10.13 69.6961 9.84471 68.1565 8.93422C67.3197 8.44014 66.1474 7.78306 64.6727 6.98336C62.1674 5.62463 59.6162 4.30156 59.5907 4.28756L59.5511 4.26846C57.9961 3.60756 53.9486 2.3125 51.641 2.3125H50.1893C48.818 2.3125 47.6547 3.42673 47.6547 4.79565V4.85295L48.4532 8.72029C48.6994 10.1656 49.6944 11.099 50.9547 11.099L50.9534 11.1003ZM50.1881 3.45984H51.6397C53.6769 3.45984 57.4935 4.64538 59.0804 5.3152C62.295 6.98209 65.7838 8.86164 67.6335 9.95422H50.9534C50.137 9.95422 49.7224 9.21437 49.6064 8.52291L48.8499 4.74598C48.8767 4.03287 49.4673 3.46111 50.1881 3.46111V3.45984Z" fill="#263544"/>
</g>
<defs>
<clipPath id="clip0_36_244">
<rect width="102" height="34" fill="white"/>
</clipPath>
</defs>
</svg>
