<svg width="117" height="48" viewBox="0 0 117 48" fill="none" xmlns="http://www.w3.org/2000/svg">
<g clip-path="url(#clip0_36_233)">
<path d="M26.4092 28.3144C22.4283 28.3144 19.1902 31.5354 19.1902 35.4953C19.1902 39.4552 22.4283 42.6763 26.4092 42.6763C30.39 42.6763 33.6281 39.4539 33.6281 35.4953C33.6281 31.5368 30.39 28.3144 26.4092 28.3144ZM26.4092 41.4576C23.1043 41.4576 20.4167 38.7828 20.4167 35.4967C20.4167 32.2106 23.1056 29.5358 26.4092 29.5358C29.7127 29.5358 32.4016 32.2106 32.4016 35.4967C32.4016 38.7828 29.7127 41.4576 26.4092 41.4576Z" fill="#263544"/>
<path d="M8.99476 30.7058C8.99476 32.1631 10.1872 33.3493 11.6523 33.3493H11.8254C12.0707 33.3493 12.2928 33.2043 12.3896 32.9792C15.1916 26.4707 16.7398 22.8795 17.1214 21.9997C17.7224 20.6169 18.6655 20.3336 19.8975 20.3336H31.0728C31.9355 20.3336 32.6346 20.461 33.7699 22.1027C34.5085 23.1697 38.1991 28.6587 41.166 33.0769C41.2791 33.2463 41.4713 33.348 41.6757 33.348H81.0578C81.3031 33.348 81.5252 33.2029 81.622 32.9779C84.424 26.4693 85.9722 22.8782 86.3538 21.9984C86.9548 20.6156 87.8979 20.3323 89.1299 20.3323H100.305C101.168 20.3323 101.867 20.4597 103.002 22.1014C103.207 22.3956 103.64 23.0354 104.331 24.0576C104.49 24.2935 104.793 24.3884 105.059 24.2867C105.325 24.185 105.487 23.9139 105.447 23.6319L104.394 16.1514C104.369 14.7198 103.196 13.5621 101.754 13.5526L76.5386 12.2145L69.1438 0.290112C69.032 0.109809 68.8344 0 68.6218 0H15.1957C13.7552 0 12.5777 1.14689 12.5395 2.57034L11.7382 6.06524C11.4029 4.98749 10.3917 4.2012 9.19918 4.2012H2.65754C1.19249 4.20256 0 5.38876 0 6.8461V24.7409C0 26.1982 1.19249 27.3844 2.65754 27.3844H8.99476V30.7058ZM13.7497 2.77911C13.7593 2.73437 13.7647 2.68964 13.7647 2.64355C13.7647 1.85862 14.4066 1.2201 15.1957 1.2201H51.3955C51.386 1.26348 51.3792 1.30957 51.3792 1.35566V24.4928C51.3792 26.0043 51.1584 26.9086 50.6623 27.4278C50.1458 27.9687 49.1822 28.2209 47.6313 28.2209C47.292 28.2209 47.0181 28.4933 47.0181 28.8309C47.0181 29.1685 47.292 29.441 47.6313 29.441C51.3042 29.441 52.6057 28.1463 52.6057 24.4928V1.35566C52.6057 1.30957 52.5989 1.26348 52.5894 1.2201H68.2798L75.6636 13.131C75.7686 13.3018 75.9526 13.4089 76.1529 13.4197L99.4875 14.6574V17.7578C99.4875 18.0954 99.7614 18.3679 100.101 18.3679C100.44 18.3679 100.714 18.0954 100.714 17.7578V14.7225L101.703 14.7754C101.714 14.7754 101.725 14.7754 101.736 14.7754C102.525 14.7754 103.167 15.4139 103.167 16.1988C103.167 16.2273 103.169 16.2558 103.173 16.2829L103.866 21.2039C102.608 19.47 101.564 19.1135 100.305 19.1135H89.1299C87.9033 19.1135 86.163 19.363 85.2281 21.5144C84.8533 22.3793 83.3555 25.8512 80.6544 32.1279H42.0042C39.0686 27.7559 35.5075 22.462 34.7811 21.4114C33.4578 19.4985 32.3811 19.1135 31.0728 19.1135H19.8975C18.6709 19.1135 16.9306 19.363 15.9957 21.5144C15.6209 22.3779 14.1259 25.8457 11.4288 32.1103C10.746 32.0032 10.2213 31.4135 10.2213 30.7044V18.1767L10.5034 16.9444H12.4019V22.2315H11.1753C10.836 22.2315 10.562 22.504 10.562 22.8416C10.562 23.1791 10.836 23.4516 11.1753 23.4516H13.6284V16.9444H21.2603C21.5997 16.9444 21.8736 16.672 21.8736 16.3344C21.8736 15.9968 21.5997 15.7243 21.2603 15.7243H10.7828L11.839 11.1151H11.8567V11.0392L13.7497 2.77776V2.77911ZM2.65754 26.1643C1.86846 26.1643 1.22656 25.5258 1.22656 24.7409V6.8461C1.22656 6.06117 1.86846 5.42266 2.65754 5.42266H9.19918C9.98827 5.42266 10.6302 6.06117 10.6302 6.8461V10.9023L9.00975 17.9734C9.00021 18.0181 8.99476 18.0629 8.99476 18.109V26.163H2.65754V26.1643Z" fill="#263544"/>
<path d="M53.9686 16.9458H59.6925C60.0318 16.9458 60.3058 16.6733 60.3058 16.3358C60.3058 15.9982 60.0318 15.7257 59.6925 15.7257H53.9686C53.6292 15.7257 53.3553 15.9982 53.3553 16.3358C53.3553 16.6733 53.6292 16.9458 53.9686 16.9458Z" fill="#263544"/>
<path d="M42.1118 15.7257H36.3879C36.0485 15.7257 35.7746 15.9982 35.7746 16.3358C35.7746 16.6733 36.0485 16.9458 36.3879 16.9458H42.1118C42.4512 16.9458 42.7251 16.6733 42.7251 16.3358C42.7251 15.9982 42.4512 15.7257 42.1118 15.7257Z" fill="#263544"/>
<path d="M71.1404 27.9267H59.8288C59.4894 27.9267 59.2155 28.1991 59.2155 28.5367C59.2155 28.8743 59.4894 29.1467 59.8288 29.1467H71.1404C72.5387 29.1467 73.6371 28.7333 74.4044 27.9172C75.5492 26.6998 75.5124 25.0242 75.5015 24.7924V16.4035C75.5015 16.0659 75.2275 15.7935 74.8882 15.7935C74.5489 15.7935 74.2749 16.0659 74.2749 16.4035V24.8086C74.2749 24.8208 74.2749 24.8344 74.2749 24.8466C74.2749 24.8601 74.3444 26.2009 73.5008 27.0902C72.9748 27.6447 72.1802 27.9267 71.139 27.9267H71.1404Z" fill="#263544"/>
<path d="M37.5463 14.0989H47.2225C48.6875 14.0989 49.88 12.9127 49.88 11.4554V4.94817C49.88 3.49083 48.6875 2.30463 47.2225 2.30463H37.5463C36.0812 2.30463 34.8887 3.49083 34.8887 4.94817V11.4554C34.8887 12.9127 36.0812 14.0989 37.5463 14.0989ZM36.1153 4.94817C36.1153 4.16324 36.7572 3.52472 37.5463 3.52472H47.2225C48.0115 3.52472 48.6534 4.16324 48.6534 4.94817V11.4554C48.6534 12.2403 48.0115 12.8788 47.2225 12.8788H37.5463C36.7572 12.8788 36.1153 12.2403 36.1153 11.4554V4.94817Z" fill="#263544"/>
<path d="M18.6028 14.0989H30.0507C31.5157 14.0989 32.7082 12.9127 32.7082 11.4554V4.94817C32.7082 3.49083 31.5157 2.30463 30.0507 2.30463H20.2151C18.7323 2.30463 17.428 3.39729 17.1814 4.83565L15.9548 11.3428C15.9548 11.3428 15.9534 11.3523 15.9521 11.3564C15.8431 12.0207 16.0175 12.6619 16.4441 13.1608C16.9456 13.7478 17.7524 14.0975 18.6015 14.0975L18.6028 14.0989ZM17.1623 11.5597L18.3888 5.04985C18.5347 4.19442 19.3374 3.52472 20.2151 3.52472H30.0507C30.8398 3.52472 31.4817 4.16324 31.4817 4.94817V11.4554C31.4817 12.2403 30.8398 12.8788 30.0507 12.8788H18.6028C18.1163 12.8788 17.6475 12.6849 17.3803 12.3718C17.1868 12.1454 17.1132 11.8715 17.1637 11.5597H17.1623Z" fill="#263544"/>
<path d="M56.6261 14.0989H69.3005C70.1659 14.0989 71.0572 13.6651 71.571 12.9927C71.9676 12.4748 72.0971 11.8715 71.9363 11.2927C71.9294 11.2683 71.9213 11.2439 71.9117 11.2208L69.1874 4.71635C68.5714 3.22919 67.3885 2.30463 66.0992 2.30463H56.6275C55.1624 2.30463 53.9699 3.49083 53.9699 4.94817V11.4554C53.9699 12.9127 55.1624 14.0989 56.6275 14.0989H56.6261ZM55.1951 4.94817C55.1951 4.16324 55.837 3.52472 56.6261 3.52472H66.0978C67.0328 3.52472 67.721 4.38015 68.0522 5.1827L70.7601 11.6492C70.8051 11.8485 70.7492 12.0519 70.5939 12.2538C70.3117 12.6212 69.7802 12.8788 69.2992 12.8788H56.6247C55.8356 12.8788 55.1937 12.2403 55.1937 11.4554V4.94817H55.1951Z" fill="#263544"/>
<path d="M47.2907 43.3813H36.159C37.9225 41.2285 38.9814 38.4819 38.9814 35.4954C38.9814 28.6005 33.342 22.9894 26.4092 22.9894C19.4764 22.9894 13.837 28.5991 13.837 35.4954C13.837 38.4833 14.8959 41.2285 16.6594 43.3813H5.17883C4.83948 43.3813 4.56555 43.6538 4.56555 43.9913C4.56555 44.3289 4.83948 44.6014 5.17883 44.6014H17.717C17.7442 44.6014 17.7688 44.5973 17.7947 44.5932C20.0461 46.704 23.0784 48 26.4092 48C29.74 48 32.7655 46.7067 35.0155 44.6014H47.2893C47.6286 44.6014 47.9026 44.3289 47.9026 43.9913C47.9026 43.6538 47.6286 43.3813 47.2893 43.3813H47.2907ZM15.0649 35.4954C15.0649 29.2729 20.1537 24.2095 26.4105 24.2095C32.6674 24.2095 37.7562 29.2715 37.7562 35.4954C37.7562 38.6121 36.4792 41.4373 34.42 43.4816C34.3586 43.5209 34.3055 43.5724 34.2619 43.6307C32.2217 45.5788 29.4565 46.7813 26.4105 46.7813C20.1551 46.7813 15.0649 41.7192 15.0649 35.4954Z" fill="#263544"/>
<path d="M26.371 37.1005C26.0316 37.1005 25.7577 37.373 25.7577 37.7105V39.5623C25.7577 39.8999 26.0316 40.1724 26.371 40.1724C26.7103 40.1724 26.9842 39.8999 26.9842 39.5623V37.7105C26.9842 37.373 26.7103 37.1005 26.371 37.1005Z" fill="#263544"/>
<path d="M28.4275 36.6151C28.1877 36.3765 27.7993 36.3765 27.5608 36.6151C27.3209 36.8537 27.3209 37.2401 27.5608 37.4773L28.8773 38.7869C28.9972 38.9062 29.1539 38.9658 29.3106 38.9658C29.4674 38.9658 29.6241 38.9062 29.744 38.7869C29.9839 38.5483 29.9839 38.1619 29.744 37.9247L28.4275 36.6151Z" fill="#263544"/>
<path d="M30.5059 34.8406H28.6442C28.3049 34.8406 28.0309 35.1131 28.0309 35.4506C28.0309 35.7882 28.3049 36.0607 28.6442 36.0607H30.5059C30.8452 36.0607 31.1191 35.7882 31.1191 35.4506C31.1191 35.1131 30.8452 34.8406 30.5059 34.8406Z" fill="#263544"/>
<path d="M27.975 34.4908C28.1318 34.4908 28.2885 34.4311 28.4084 34.3118L29.7249 33.0023C29.9648 32.7637 29.9648 32.3773 29.7249 32.1401C29.4851 31.9015 29.0967 31.9015 28.8582 32.1401L27.5417 33.4496C27.3018 33.6882 27.3018 34.0746 27.5417 34.3118C27.6616 34.4311 27.8183 34.4908 27.975 34.4908Z" fill="#263544"/>
<path d="M26.371 33.8455C26.7103 33.8455 26.9842 33.573 26.9842 33.2354V31.3836C26.9842 31.046 26.7103 30.7736 26.371 30.7736C26.0316 30.7736 25.7577 31.046 25.7577 31.3836V33.2354C25.7577 33.573 26.0316 33.8455 26.371 33.8455Z" fill="#263544"/>
<path d="M24.3594 34.3322C24.4794 34.4515 24.6361 34.5111 24.7928 34.5111C24.9495 34.5111 25.1063 34.4515 25.2262 34.3322C25.4661 34.0936 25.4661 33.7072 25.2262 33.47L23.9097 32.1604C23.6698 31.9218 23.2814 31.9218 23.0429 32.1604C22.8031 32.399 22.8031 32.7854 23.0429 33.0226L24.3594 34.3322Z" fill="#263544"/>
<path d="M24.7574 35.4506C24.7574 35.1131 24.4835 34.8406 24.1441 34.8406H22.2825C21.9431 34.8406 21.6692 35.1131 21.6692 35.4506C21.6692 35.7882 21.9431 36.0607 22.2825 36.0607H24.1441C24.4835 36.0607 24.7574 35.7882 24.7574 35.4506Z" fill="#263544"/>
<path d="M24.3785 36.6341L23.062 37.9437C22.8222 38.1823 22.8222 38.5686 23.062 38.8059C23.182 38.9252 23.3387 38.9848 23.4954 38.9848C23.6521 38.9848 23.8089 38.9252 23.9288 38.8059L25.2453 37.4963C25.4852 37.2577 25.4852 36.8713 25.2453 36.6341C25.0054 36.3955 24.617 36.3955 24.3785 36.6341Z" fill="#263544"/>
<path d="M95.5052 28.3144C91.5244 28.3144 88.2863 31.5354 88.2863 35.4953C88.2863 39.4552 91.5244 42.6763 95.5052 42.6763C99.4861 42.6763 102.724 39.4539 102.724 35.4953C102.724 31.5368 99.4861 28.3144 95.5052 28.3144ZM95.5052 41.4576C92.2003 41.4576 89.5128 38.7828 89.5128 35.4967C89.5128 32.2106 92.2017 29.5358 95.5052 29.5358C98.8088 29.5358 101.498 32.2106 101.498 35.4967C101.498 38.7828 98.8088 41.4576 95.5052 41.4576Z" fill="#263544"/>
<path d="M116.387 43.3813H105.255C107.019 41.2285 108.077 38.4819 108.077 35.4954C108.077 28.6005 102.438 22.9894 95.5053 22.9894C88.5725 22.9894 82.9331 28.5991 82.9331 35.4954C82.9331 38.4833 83.992 41.2285 85.7555 43.3813H74.2736C73.9342 43.3813 73.6603 43.6538 73.6603 43.9913C73.6603 44.3289 73.9342 44.6014 74.2736 44.6014H86.8117C86.8376 44.6014 86.8635 44.5973 86.8894 44.5932C89.1408 46.704 92.1731 48 95.5039 48C98.8347 48 101.86 46.7067 104.11 44.6014H116.384C116.723 44.6014 116.997 44.3289 116.997 43.9913C116.997 43.6538 116.723 43.3813 116.384 43.3813H116.387ZM84.161 35.4954C84.161 29.2729 89.2498 24.2095 95.5066 24.2095C101.763 24.2095 106.852 29.2715 106.852 35.4954C106.852 38.6121 105.575 41.4373 103.516 43.4816C103.455 43.5209 103.402 43.5724 103.358 43.6307C101.318 45.5788 98.5526 46.7813 95.5066 46.7813C89.2512 46.7813 84.161 41.7192 84.161 35.4954Z" fill="#263544"/>
<path d="M95.4671 37.1005C95.1278 37.1005 94.8538 37.373 94.8538 37.7105V39.5623C94.8538 39.8999 95.1278 40.1724 95.4671 40.1724C95.8064 40.1724 96.0804 39.8999 96.0804 39.5623V37.7105C96.0804 37.373 95.8064 37.1005 95.4671 37.1005Z" fill="#263544"/>
<path d="M97.5236 36.6151C97.2837 36.3765 96.8953 36.3765 96.6568 36.6151C96.417 36.8537 96.417 37.2401 96.6568 37.4773L97.9733 38.7869C98.0933 38.9062 98.25 38.9658 98.4067 38.9658C98.5634 38.9658 98.7202 38.9062 98.8401 38.7869C99.08 38.5483 99.08 38.1619 98.8401 37.9247L97.5236 36.6151Z" fill="#263544"/>
<path d="M99.6019 34.8406H97.7403C97.4009 34.8406 97.127 35.1131 97.127 35.4506C97.127 35.7882 97.4009 36.0607 97.7403 36.0607H99.6019C99.9413 36.0607 100.215 35.7882 100.215 35.4506C100.215 35.1131 99.9413 34.8406 99.6019 34.8406Z" fill="#263544"/>
<path d="M97.0712 34.4908C97.2279 34.4908 97.3846 34.4311 97.5045 34.3118L98.821 33.0023C99.0609 32.7637 99.0609 32.3773 98.821 32.1401C98.5812 31.9015 98.1928 31.9015 97.9543 32.1401L96.6378 33.4496C96.3979 33.6882 96.3979 34.0746 96.6378 34.3118C96.7577 34.4311 96.9144 34.4908 97.0712 34.4908Z" fill="#263544"/>
<path d="M95.4671 33.8455C95.8064 33.8455 96.0804 33.573 96.0804 33.2354V31.3836C96.0804 31.046 95.8064 30.7736 95.4671 30.7736C95.1278 30.7736 94.8538 31.046 94.8538 31.3836V33.2354C94.8538 33.573 95.1278 33.8455 95.4671 33.8455Z" fill="#263544"/>
<path d="M93.4569 34.3322C93.5768 34.4515 93.7336 34.5111 93.8903 34.5111C94.047 34.5111 94.2037 34.4515 94.3237 34.3322C94.5635 34.0936 94.5635 33.7072 94.3237 33.47L93.0072 32.1604C92.7673 31.9218 92.3789 31.9218 92.1404 32.1604C91.9005 32.399 91.9005 32.7854 92.1404 33.0226L93.4569 34.3322Z" fill="#263544"/>
<path d="M93.8535 35.4506C93.8535 35.1131 93.5795 34.8406 93.2402 34.8406H91.3785C91.0392 34.8406 90.7653 35.1131 90.7653 35.4506C90.7653 35.7882 91.0392 36.0607 91.3785 36.0607H93.2402C93.5795 36.0607 93.8535 35.7882 93.8535 35.4506Z" fill="#263544"/>
<path d="M93.4746 36.6341L92.1581 37.9437C91.9182 38.1823 91.9182 38.5686 92.1581 38.8059C92.278 38.9252 92.4348 38.9848 92.5915 38.9848C92.7482 38.9848 92.9049 38.9252 93.0249 38.8059L94.3414 37.4963C94.5812 37.2577 94.5812 36.8713 94.3414 36.6341C94.1015 36.3955 93.7131 36.3955 93.4746 36.6341Z" fill="#263544"/>
</g>
<defs>
<clipPath id="clip0_36_233">
<rect width="117" height="48" fill="white"/>
</clipPath>
</defs>
</svg>
